<svg id="Layer_1" data-name="Layer 1" xmlns="http://www.w3.org/2000/svg" width="276.99" height="292.58" viewBox="0 0 276.99 292.58"><defs><style>.cls-1,.cls-4{fill:#fff;}.cls-2{fill:#f9d710;}.cls-3{opacity:0.1;}.cls-4,.cls-7,.cls-9{stroke:#000;stroke-miterlimit:10;}.cls-5{fill:#f2e9e9;}.cls-6{fill:#cecaca;}.cls-7,.cls-9{fill:none;}.cls-8{fill:#cecccc;}.cls-9{stroke-width:1.07px;}.cls-10{fill:#8c8c8c;}.cls-11{fill:#ededed;}.cls-12{fill:#1a191a;}</style></defs><title>Wireless monitoring page3</title><path class="cls-1" d="M171.91.41a32.31,32.31,0,1,1-57.63,0H112a34.31,34.31,0,1,0,62.09,0Z" transform="translate(-6.02 -0.41)"/><path class="cls-1" d="M143.1,29.92A13.92,13.92,0,1,1,157,16,13.94,13.94,0,0,1,143.1,29.92Zm0-25.84A11.92,11.92,0,1,0,155,16,11.93,11.93,0,0,0,143.1,4.08Z" transform="translate(-6.02 -0.41)"/><path class="cls-1" d="M192.92.41a52.2,52.2,0,1,1-99.65,0H91.19A54.2,54.2,0,1,0,195,.41Z" transform="translate(-6.02 -0.41)"/><path class="cls-1" d="M212.35.41A71,71,0,1,1,73.84.41H71.79A73,73,0,1,0,214.4.41Z" transform="translate(-6.02 -0.41)"/><path class="cls-1" d="M233.68.41A91.91,91.91,0,1,1,52.51.41h-2A93.91,93.91,0,1,0,235.7.41Z" transform="translate(-6.02 -0.41)"/><path class="cls-1" d="M254.42.41A112.41,112.41,0,1,1,31.77.41h-2A114.91,114.91,0,0,0,28.68,16a114.41,114.41,0,0,0,228.83,0A114.91,114.91,0,0,0,256.44.41Z" transform="translate(-6.02 -0.41)"/><path class="cls-1" d="M276.72.41A135.3,135.3,0,0,1,277.63,16c0,74.18-60.35,134.53-134.53,134.53S8.56,90.18,8.56,16A135.3,135.3,0,0,1,9.47.41h-2A137.33,137.33,0,0,0,6.56,16c0,75.28,61.25,136.53,136.53,136.53S279.63,91.29,279.63,16a137.33,137.33,0,0,0-.9-15.59Z" transform="translate(-6.02 -0.41)"/><path class="cls-2" d="M158.64.41h-3a20.23,20.23,0,1,1-25.19,0h-3a22.23,22.23,0,1,0,31.28,0Z" transform="translate(-6.02 -0.41)"/><path class="cls-2" d="M182,.41A42.07,42.07,0,1,1,104,.41h-2.17a44.07,44.07,0,1,0,82.28,0Z" transform="translate(-6.02 -0.41)"/><path class="cls-2" d="M201.78.41A60.88,60.88,0,1,1,84.22.41H82.15a62.88,62.88,0,1,0,121.71,0Z" transform="translate(-6.02 -0.41)"/><path class="cls-2" d="M223.22.41A81.77,81.77,0,1,1,62.78.41H60.73a83.77,83.77,0,1,0,164.54,0Z" transform="translate(-6.02 -0.41)"/><path class="cls-2" d="M243.88.41a102.24,102.24,0,0,1,1.25,15.79,102.13,102.13,0,1,1-204.26,0A102.24,102.24,0,0,1,42.12.41h-2a104.13,104.13,0,1,0,205.83,0Z" transform="translate(-6.02 -0.41)"/><path class="cls-2" d="M267,.41a126.66,126.66,0,0,1,1,15.79,124.17,124.17,0,0,1-36.61,88.38,125,125,0,0,1-176.75,0A124.17,124.17,0,0,1,18,16.21,126.66,126.66,0,0,1,19,.41H17A127,127,0,1,0,270,16.21,127.88,127.88,0,0,0,269,.41Z" transform="translate(-6.02 -0.41)"/><path class="cls-3" d="M199.93,212.8H85.38c-3.48,0-5.2-2.7-3.85-5.93l14.9-35.6c1-2.33,4.1-4.2,7-4.2h78.51c2.87,0,6,1.87,7,4.2l14.9,35.6C205.13,210.09,203.41,212.8,199.93,212.8Z" transform="translate(-6.02 -0.41)"/><path class="cls-4" d="M192.74,201.48a31.69,31.69,0,0,0,2.76-12.58V96.58c0-4.5-1.06-9.1-2.76-11.1H91.88c-1.7,2-3.38,6.6-3.38,11.1V188.9c0,4.5,1.68,8.58,3.38,12.58Z" transform="translate(-6.02 -0.41)"/><path class="cls-5" d="M195.7,96.34a26,26,0,0,0-3-11.52H91.88c-1.66,3.33-3.73,7.12-3.81,11.52Z" transform="translate(-6.02 -0.41)"/><path class="cls-5" d="M88.49,171.09V188.9c0,4.5,2.12,9.5,3.81,12.89H193.16a31,31,0,0,0,3-12.89V171.09Z" transform="translate(-6.02 -0.41)"/><path class="cls-6" d="M88.49,186.32v2.58c0,4.5,2.12,9.5,3.81,12.89H193.16a31,31,0,0,0,3-12.89v-2.58Z" transform="translate(-6.02 -0.41)"/><path class="cls-7" d="M192.74,201.48a31.69,31.69,0,0,0,2.76-12.58V96.58c0-4.5-1.06-9.1-2.76-11.1H91.88c-1.7,2-3.38,6.6-3.38,11.1V188.9c0,4.5,1.68,8.58,3.38,12.58Z" transform="translate(-6.02 -0.41)"/><path class="cls-8" d="M140.74,148.66a13.41,13.41,0,1,1,9.48-3.93A13.32,13.32,0,0,1,140.74,148.66Z" transform="translate(-6.02 -0.41)"/><path d="M140.74,122.38a12.87,12.87,0,1,1-9.1,3.77,12.83,12.83,0,0,1,9.1-3.77m0-1.07a13.94,13.94,0,1,0,9.86,4.08,13.85,13.85,0,0,0-9.86-4.08Z" transform="translate(-6.02 -0.41)"/><path class="cls-9" d="M156,120a21.61,21.61,0,0,1,0,30.56" transform="translate(-6.02 -0.41)"/><path class="cls-9" d="M125.46,150.53a21.61,21.61,0,0,1,0-30.56" transform="translate(-6.02 -0.41)"/><path class="cls-9" d="M160.35,115.64a27.74,27.74,0,0,1,0,39.23" transform="translate(-6.02 -0.41)"/><path class="cls-9" d="M121.12,154.86a27.74,27.74,0,0,1,0-39.23" transform="translate(-6.02 -0.41)"/><path class="cls-9" d="M165.3,110.69a34.74,34.74,0,0,1,0,49.13" transform="translate(-6.02 -0.41)"/><path class="cls-9" d="M116.17,159.82a34.74,34.74,0,0,1,0-49.13" transform="translate(-6.02 -0.41)"/><path class="cls-9" d="M170.29,105.7a41.79,41.79,0,0,1,0,59.1" transform="translate(-6.02 -0.41)"/><path class="cls-9" d="M111.19,164.8a41.79,41.79,0,0,1,0-59.1" transform="translate(-6.02 -0.41)"/><circle class="cls-10" cx="112.7" cy="188.24" r="3.5"/><path d="M118.72,185.69a3,3,0,1,1-3,3,3,3,0,0,1,3-3m0-1.07a4,4,0,1,0,4,4,4,4,0,0,0-4-4Z" transform="translate(-6.02 -0.41)"/><circle class="cls-10" cx="128.54" cy="188.24" r="3.5"/><path d="M134.56,185.69a3,3,0,1,1-3,3,3,3,0,0,1,3-3m0-1.07a4,4,0,1,0,4,4,4,4,0,0,0-4-4Z" transform="translate(-6.02 -0.41)"/><circle class="cls-10" cx="144.39" cy="188.24" r="3.5"/><path d="M150.41,185.69a3,3,0,1,1-3,3,3,3,0,0,1,3-3m0-1.07a4,4,0,1,0,4,4,4,4,0,0,0-4-4Z" transform="translate(-6.02 -0.41)"/><circle class="cls-10" cx="160.24" cy="188.24" r="3.5"/><path d="M166.26,185.69a3,3,0,1,1-3,3,3,3,0,0,1,3-3m0-1.07a4,4,0,1,0,4,4,4,4,0,0,0-4-4Z" transform="translate(-6.02 -0.41)"/><path class="cls-11" d="M87.64,144.42a7.11,7.11,0,0,1-7.1-7.1V37.57a7.11,7.11,0,0,1,7.1-7.1h.54v114Z" transform="translate(-6.02 -0.41)"/><path d="M87.64,31V143.89h0a6.59,6.59,0,0,1-6.57-6.57V37.57A6.59,6.59,0,0,1,87.64,31h0m1.07-1.07H87.64A7.65,7.65,0,0,0,80,37.57v99.75A7.65,7.65,0,0,0,87.64,145h1.07v-115Z" transform="translate(-6.02 -0.41)"/><path class="cls-11" d="M195.76,144.42v-114h.54a7.11,7.11,0,0,1,7.11,7.1v99.75a7.11,7.11,0,0,1-7.1,7.1Z" transform="translate(-6.02 -0.41)"/><path d="M196.3,31a6.59,6.59,0,0,1,6.57,6.57v99.75a6.59,6.59,0,0,1-6.57,6.57V31m0-1.07h-1.07V145h1.07a7.65,7.65,0,0,0,7.64-7.64V37.57a7.65,7.65,0,0,0-7.64-7.64Z" transform="translate(-6.02 -0.41)"/><path class="cls-6" d="M81.07,87.68v49.64a6.59,6.59,0,0,0,6.57,6.57V79.46C85.3,82.09,83.13,84.84,81.07,87.68Z" transform="translate(-6.02 -0.41)"/><path class="cls-6" d="M196.3,78.19v65.7h0a6.59,6.59,0,0,0,6.57-6.57V86.46Q199.47,82.42,196.3,78.19Z" transform="translate(-6.02 -0.41)"/><rect class="cls-6" x="215.88" y="242.23" width="20.77" height="11.29" rx="2.53" ry="2.53"/><path d="M240.14,243.18a2,2,0,0,1,2,2v6.23a2,2,0,0,1-2,2H224.42a2,2,0,0,1-2-2v-6.23a2,2,0,0,1,2-2h15.71m0-1.07H224.42a3.06,3.06,0,0,0-3.06,3.06v6.23a3.06,3.06,0,0,0,3.06,3.06h15.71a3.06,3.06,0,0,0,3.06-3.06v-6.23a3.06,3.06,0,0,0-3.06-3.06Z" transform="translate(-6.02 -0.41)"/><rect class="cls-10" x="196.72" y="241.66" width="22.98" height="12.43" rx="2.75" ry="2.75"/><path d="M223,242.6a2.22,2.22,0,0,1,2.21,2.21v6.94A2.22,2.22,0,0,1,223,254H205.49a2.22,2.22,0,0,1-2.21-2.21v-6.94a2.22,2.22,0,0,1,2.21-2.21H223m0-1.07H205.49a3.29,3.29,0,0,0-3.29,3.29v6.94a3.29,3.29,0,0,0,3.29,3.29H223a3.29,3.29,0,0,0,3.29-3.29v-6.94a3.29,3.29,0,0,0-3.29-3.29Z" transform="translate(-6.02 -0.41)"/><rect class="cls-1" x="111.56" y="247.34" width="95.68" height="15.93"/><path d="M212.72,248.29v14.86h-94.6V248.29h94.6m1.07-1.07H117v17h96.75v-17Z" transform="translate(-6.02 -0.41)"/><rect class="cls-6" x="112.09" y="254.97" width="94.6" height="7.77"/><polygon class="cls-11" points="111.75 248.41 104.8 233.19 200.58 233.19 207.53 248.41 111.75 248.41"/><path d="M206.25,234.14l6.46,14.14h-94.6l-6.46-14.14h94.6m.69-1.07H110l.69,1.52,6.46,14.14.29.63h97l-.69-1.52-6.46-14.14-.29-.63Z" transform="translate(-6.02 -0.41)"/><path class="cls-3" d="M140.18,293H10.09c-2.22,0-3.31-1.86-2.45-4.08l9.48-24.47c.62-1.6,2.61-20.38,4.44-20.38H128.72c1.83,0,3.82,18.78,4.44,20.38l9.48,24.47C143.49,291.13,142.4,293,140.18,293Z" transform="translate(-6.02 -0.41)"/><path class="cls-1" d="M13.65,284.75a4.07,4.07,0,0,1-4-3.7L6.83,244.16a3.91,3.91,0,0,1,1-3,3.55,3.55,0,0,1,2.63-1.15h129a3.55,3.55,0,0,1,2.63,1.15,3.91,3.91,0,0,1,1,3L140.22,281a4.07,4.07,0,0,1-4,3.7Z" transform="translate(-6.02 -0.41)"/><path d="M139.44,240.6a3.16,3.16,0,0,1,3.09,3.52L139.68,281a3.53,3.53,0,0,1-3.44,3.21H13.65A3.53,3.53,0,0,1,10.21,281L7.36,244.12a3.16,3.16,0,0,1,3.09-3.52h129m0-1.07h-129a4.08,4.08,0,0,0-3,1.32,4.44,4.44,0,0,0-1.13,3.36l2.84,36.88a4.61,4.61,0,0,0,4.51,4.2H136.24a4.61,4.61,0,0,0,4.51-4.2l2.84-36.88a4.44,4.44,0,0,0-1.13-3.36,4.08,4.08,0,0,0-3-1.32Z" transform="translate(-6.02 -0.41)"/><path class="cls-1" d="M9.84,246.09A3.22,3.22,0,0,1,7,244.76a3.36,3.36,0,0,1-.14-3.19l9.49-22.68a5.59,5.59,0,0,1,4.94-3H128.57a5.59,5.59,0,0,1,4.94,3L143,241.57a3.36,3.36,0,0,1-.14,3.19,3.23,3.23,0,0,1-2.81,1.33Z" transform="translate(-6.02 -0.41)"/><path d="M128.57,216.42a5.08,5.08,0,0,1,4.44,2.68l9.49,22.68c.86,2.06-.23,3.78-2.45,3.78H9.84c-2.22,0-3.31-1.72-2.45-3.78l9.49-22.68a5.08,5.08,0,0,1,4.44-2.68H128.57m0-1.07H21.32a6.16,6.16,0,0,0-5.43,3.33L6.39,241.36a3.88,3.88,0,0,0,.19,3.69,3.79,3.79,0,0,0,3.26,1.57H140.05a3.79,3.79,0,0,0,3.26-1.57,3.88,3.88,0,0,0,.19-3.69L134,218.68a6.16,6.16,0,0,0-5.43-3.33Z" transform="translate(-6.02 -0.41)"/><path class="cls-1" d="M9.84,246.09A3.22,3.22,0,0,1,7,244.76a3.36,3.36,0,0,1-.14-3.19l9.49-22.68a5.59,5.59,0,0,1,4.94-3H128.57a5.59,5.59,0,0,1,4.94,3L143,241.57a3.36,3.36,0,0,1-.14,3.19,3.23,3.23,0,0,1-2.81,1.33Z" transform="translate(-6.02 -0.41)"/><path d="M128.57,216.42a5.08,5.08,0,0,1,4.44,2.68l9.49,22.68c.86,2.06-.23,3.78-2.45,3.78H9.84c-2.22,0-3.31-1.72-2.45-3.78l9.49-22.68a5.08,5.08,0,0,1,4.44-2.68H128.57m0-1.07H21.32a6.16,6.16,0,0,0-5.43,3.33L6.39,241.36a3.88,3.88,0,0,0,.19,3.69,3.79,3.79,0,0,0,3.26,1.57H140.05a3.79,3.79,0,0,0,3.26-1.57,3.88,3.88,0,0,0,.19-3.69L134,218.68a6.16,6.16,0,0,0-5.43-3.33Z" transform="translate(-6.02 -0.41)"/><path class="cls-5" d="M135.17,224.24,133,219.09a5.08,5.08,0,0,0-4.44-2.68H21.32a5.08,5.08,0,0,0-4.44,2.68l-2.15,5.15Z" transform="translate(-6.02 -0.41)"/><path class="cls-1" d="M20,239.68a3.6,3.6,0,0,1-3.32-5l4.14-10.86a4.23,4.23,0,0,1,3.93-2.71H125.1a4.23,4.23,0,0,1,3.93,2.71l4.15,10.88a3.6,3.6,0,0,1-3.32,5Z" transform="translate(-6.02 -0.41)"/><path d="M125.1,221.66a3.67,3.67,0,0,1,3.43,2.36l4.15,10.88a3.06,3.06,0,0,1-2.82,4.24H20a3.06,3.06,0,0,1-2.82-4.24L21.36,224a3.67,3.67,0,0,1,3.43-2.36H125.1m0-1.07H24.79a4.77,4.77,0,0,0-4.43,3.05L16.2,234.52A4.13,4.13,0,0,0,20,240.21H129.86a4.13,4.13,0,0,0,3.81-5.72l-4.14-10.85a4.77,4.77,0,0,0-4.43-3.05Z" transform="translate(-6.02 -0.41)"/><path class="cls-6" d="M137.13,274H12.76c-1.36,0-2.6-.29-3.17-1.47l.61,8.61c.14,1.77,1.69,3.87,3.44,3.87H136.24c1.76,0,3.31-1.82,3.44-3.59l.61-8.69C139.73,273.88,138.49,274,137.13,274Z" transform="translate(-6.02 -0.41)"/><path class="cls-5" d="M138.41,258H11.48a3.55,3.55,0,0,1-3.18-1.85l1.3,16.33c.57,1.18,1.81,1.53,3.17,1.53H137.13c1.36,0,2.6-.29,3.17-1.47l1.3-16.65A3.82,3.82,0,0,1,138.41,258Z" transform="translate(-6.02 -0.41)"/><path class="cls-12" d="M79.38,263.16H76.19v1.19h3.19c.29,0,.51-.06.51-.35v-.45C79.89,263.26,79.67,263.16,79.38,263.16Z" transform="translate(-6.02 -0.41)"/><path class="cls-12" d="M79.38,266H76.19v1.4h3.19c.29,0,.51-.15.51-.44v-.62C79.89,266,79.67,266,79.38,266Z" transform="translate(-6.02 -0.41)"/><path class="cls-12" d="M74.94,256.43a8.84,8.84,0,1,0,8.84,8.84A8.84,8.84,0,0,0,74.94,256.43Zm5.11,12.43H74.48l-4.28-4.11v4.13h-2v-7.21h1.69l4.3,4.13v-4.13h5.9a1.63,1.63,0,0,1,1.52,1.52v.4a1.59,1.59,0,0,1-1.37,1.55,1.64,1.64,0,0,1,1.42,1.59v.62a3.35,3.35,0,0,0,.55,2A4.61,4.61,0,0,0,80.05,268.86Z" transform="translate(-6.02 -0.41)"/><path class="cls-1" d="M241.59,257.61c-7,0-10.87-5.9-11-6.15l-.12-.19.05-.22c.33-1.39,33.24-138.77,35.25-146.84,1.86-7.46,2.83-7.46,3.3-7.46l.19,0,8-2a8.54,8.54,0,0,1,1.82-.21,3.93,3.93,0,0,1,4,3.94v.06L247.15,256.52l-.38.1a14.78,14.78,0,0,1-5.18,1Z" transform="translate(-6.02 -0.41)"/><path d="M278.8,95.11c3.2,0,3.2,3.4,3.2,3.4L246.46,256.12a13.57,13.57,0,0,1-4.87,1c-6.83,0-10.57-5.9-10.57-5.9s33.21-138.67,35.25-146.83c1.59-6.34,2.47-7,2.78-7a.17.17,0,0,1,.13.06l8.16-2a6,6,0,0,1,1.46-.2M279,94v0a5.45,5.45,0,0,0-1.82.24l-7.9,2h-.2c-1,0-2,.6-3.83,7.86-2,8.07-34.93,145.46-35.26,146.84l-.11.44.24.38c.17.26,4.14,6.4,11.48,6.4a14.71,14.71,0,0,0,5.25-1l.54-.21.13-.56L283,98.75v-.24A4.28,4.28,0,0,0,278.76,94Z" transform="translate(-6.02 -0.41)"/><path class="cls-5" d="M254.66,152.55l-3.37,14a48,48,0,0,1,14.25,4.9l3.3-14.63A36.24,36.24,0,0,0,254.66,152.55Z" transform="translate(-6.02 -0.41)"/><path class="cls-12" d="M51.72,233.78H51l-2.49-2.93a2,2,0,0,1-.26-.37q-.09.44-.17.7l-.8,2.6h-1l1.49-4.64h.7l2.34,2.68a3.35,3.35,0,0,1,.38.51c.09-.44.15-.71.18-.81l.65-2.38h.92Z" transform="translate(-6.02 -0.41)"/><path class="cls-12" d="M61.28,233.78h-4l.79-3.9h3.76l-.1.64H58.83l-.16.85h1.72l-.11.66H58.54l-.19,1h3Z" transform="translate(-6.02 -0.41)"/><path class="cls-12" d="M69.58,230.55H67.87l-.29,3.23h-.89l.32-3.23h-1.7l.08-.67h4.24Z" transform="translate(-6.02 -0.41)"/><path class="cls-12" d="M78.5,232.84c0,.63-.43.95-1.33.95H73.51l.12-4.64h3.75c.66,0,1,.29,1,.86l0,.55c0,.45-.24.71-.75.77a.85.85,0,0,1,.83.9Zm-1.05-2.22v-.43q0-.32-.48-.32H74.62l0,1.08H77Q77.45,230.95,77.44,230.62Zm.06,1.87v-.36q0-.26-.12-.34a.74.74,0,0,0-.39-.08H74.59l0,1.2H77a.73.73,0,0,0,.39-.08Q77.51,232.75,77.5,232.49Z" transform="translate(-6.02 -0.41)"/><path class="cls-12" d="M87.8,233.78h-4l-.33-3.9h3.76l.08.64H84.42l.08.85h1.72l.08.66H84.56l.09,1h3Z" transform="translate(-6.02 -0.41)"/><path class="cls-12" d="M96.29,233.78h-4l-.69-3.9h3.76l.14.64H92.61l.16.85h1.73l.14.66H92.89l.18,1h3Z" transform="translate(-6.02 -0.41)"/><path class="cls-12" d="M104.4,233.78h-4.12l-.12-.44,1.86-2.79H99.68l-.18-.67h3.69l.11.37L101.46,233h2.7Z" transform="translate(-6.02 -0.41)"/></svg>