<svg id="Layer_1" data-name="Layer 1" xmlns="http://www.w3.org/2000/svg" width="325.48" height="294.59" viewBox="0 0 325.48 294.59"><defs><style>.cls-1{fill:#f9d710;}.cls-10,.cls-2,.cls-20,.cls-4,.cls-5{fill:none;}.cls-2{stroke:#f9d710;}.cls-10,.cls-11,.cls-15,.cls-16,.cls-18,.cls-19,.cls-2,.cls-20,.cls-21,.cls-4{stroke-miterlimit:10;}.cls-2,.cls-4{stroke-width:3px;}.cls-16,.cls-17,.cls-19,.cls-3{fill:#fff;}.cls-4{stroke:#fff;}.cls-6{fill:#ededed;stroke-linecap:round;}.cls-10,.cls-11,.cls-15,.cls-16,.cls-17,.cls-18,.cls-19,.cls-20,.cls-21,.cls-6{stroke:#000;}.cls-17,.cls-6{stroke-linejoin:round;}.cls-7{fill:#1a191a;}.cls-18,.cls-8{fill:#f2e9e9;}.cls-9{fill:#b5b5b5;}.cls-11{fill:#8c8c8c;}.cls-12{opacity:0.09;}.cls-13,.cls-21{fill:#cecaca;}.cls-14{opacity:0.11;isolation:isolate;}.cls-15{fill:#e0dede;}.cls-19,.cls-20{stroke-width:1.5px;}.cls-22{fill:#2b2b2b;}</style></defs><title>office monitoring page7</title><polygon class="cls-1" points="141.41 184.23 146.9 199.69 130.76 196.72 141.41 184.23"/><polygon class="cls-1" points="143.59 89.08 137.86 104.46 127.41 91.82 143.59 89.08"/><line class="cls-2" x1="255.37" y1="139.9" x2="133.77" y2="93.98"/><polygon class="cls-3" points="140.69 74.45 134.96 89.84 124.51 77.19 140.69 74.45"/><line class="cls-4" x1="252.48" y1="125.28" x2="130.87" y2="79.35"/><line class="cls-2" x1="236.99" y1="148.3" x2="139.99" y2="193.85"/><polygon class="cls-3" points="127.08 176.66 132.57 192.12 116.43 189.14 127.08 176.66"/><line class="cls-4" x1="222.67" y1="140.72" x2="125.66" y2="186.28"/><rect class="cls-5" width="325.48" height="294.59"/><polygon class="cls-3" points="117.69 78.39 122.83 93.98 106.76 90.64 117.69 78.39"/><polygon class="cls-6" points="69.59 192.47 75 188.56 75 210.83 69.59 210.83 69.59 192.47"/><path class="cls-7" d="M204.49,194.59h-.68l-2.32-2.73a1.89,1.89,0,0,1-.24-.35q-.09.41-.16.65l-.75,2.42h-.9l1.39-4.33h.65l2.18,2.5a3.13,3.13,0,0,1,.35.48c.08-.41.14-.66.16-.76l.6-2.22h.85Z"/><path class="cls-7" d="M213.41,194.59h-3.67l.73-3.64H214l-.1.6h-2.73l-.15.8h1.61l-.11.62h-1.62l-.18.92h2.84Z"/><path class="cls-7" d="M221.16,191.57h-1.6l-.27,3h-.83l.3-3h-1.59l.07-.63h4Z"/><path class="cls-7" d="M229.48,193.71c0,.59-.4.88-1.24.88h-3.42l.11-4.33h3.5c.61,0,.93.27.94.81v.52c0,.42-.22.66-.7.72a.79.79,0,0,1,.78.8v0Zm-1-2.07v-.4q0-.3-.44-.3h-2.19v1h2.21q.44.05.44-.3Zm.05,1.74V193q0-.25-.12-.32a.69.69,0,0,0-.36-.07h-2.23v1.12h2.26a.69.69,0,0,0,.37-.07.37.37,0,0,0,.1-.33Z"/><path class="cls-7" d="M238.17,194.59h-3.7l-.31-3.64h3.51l.08.6H235l.08.8h1.64l.07.62h-1.67l.09.92h2.84Z"/><path class="cls-7" d="M246.08,194.59h-3.7l-.64-3.6h3.51l.13.6h-2.73l.15.8h1.61l.13.62h-1.62l.17.92h2.84Z"/><path class="cls-7" d="M253.65,194.59H249.8l-.11-.41,1.74-2.6h-2.18l-.17-.63h3.45l.11.35-1.73,2.59h2.52Z"/><polygon class="cls-8" points="194.27 99.38 200.47 96.73 255.3 96.75 261.41 99.38 194.27 99.38"/><path d="M255.19,97l5,2.12H195.5l5-2.12h54.72m.1-.5H200.37L193,99.61h69.6l-7.34-3.12Z"/><rect class="cls-3" x="195.36" y="103.85" width="64.88" height="91.93"/><path d="M259.74,104.35v90.93H195.86V104.35h63.88m1-1H194.86v92.93h65.88Z"/><rect class="cls-8" x="195.86" y="104.35" width="63.88" height="11.9"/><rect class="cls-8" x="192.96" y="99.36" width="69.67" height="5.48"/><path d="M262.13,99.86v4.48H193.46V99.86h68.67m1-1H192.46v6.48h70.67Z"/><rect class="cls-8" x="199.57" y="108.6" width="9.29" height="15.29"/><path d="M208.36,109.1v14.3h-8.29V109.1h8.29m1-1H199.07v16.3h10.29Z"/><rect class="cls-9" x="200.07" y="109.1" width="8.29" height="4"/><rect class="cls-8" x="211.36" y="108.6" width="9.29" height="15.29"/><path d="M220.15,109.1v14.3h-8.29V109.1h8.29m1-1H210.86v16.3h10.29V108.1Z"/><rect class="cls-9" x="211.86" y="109.1" width="8.29" height="4"/><rect class="cls-8" x="223.15" y="108.6" width="9.29" height="15.29"/><path d="M231.94,109.1v14.3h-8.29V109.1h8.29m1-1H222.65v16.3h10.29Z"/><rect class="cls-9" x="223.65" y="109.1" width="8.29" height="4"/><rect class="cls-8" x="234.94" y="108.6" width="9.29" height="15.29"/><path d="M243.74,109.1v14.3h-8.3V109.1h8.3m1-1h-10.3v16.3h10.3Z"/><rect class="cls-9" x="235.44" y="109.1" width="8.29" height="4"/><rect class="cls-8" x="246.73" y="108.6" width="9.29" height="15.29"/><path d="M255.52,109.1v14.3h-8.29V109.1h8.29m1-1H246.23v16.3h10.29Z"/><rect class="cls-9" x="247.23" y="109.1" width="8.29" height="4"/><rect class="cls-8" x="199.57" y="126.43" width="9.29" height="15.29"/><path d="M208.36,126.93v14.29h-8.29V126.93h8.29m1-1H199.07v16.29h10.29Z"/><rect class="cls-9" x="200.07" y="126.93" width="8.29" height="4"/><rect class="cls-8" x="211.36" y="126.43" width="9.29" height="15.29"/><path d="M220.15,126.93v14.29h-8.29V126.93h8.29m1-1H210.86v16.29h10.29V125.93Z"/><rect class="cls-9" x="211.86" y="126.93" width="8.29" height="4"/><rect class="cls-8" x="223.15" y="126.43" width="9.29" height="15.29"/><path d="M231.94,126.93v14.29h-8.29V126.93h8.29m1-1H222.65v16.29h10.29Z"/><rect class="cls-9" x="223.65" y="126.93" width="8.29" height="4"/><rect class="cls-8" x="234.94" y="126.43" width="9.29" height="15.29"/><path d="M243.74,126.93v14.29h-8.3V126.93h8.3m1-1h-10.3v16.29h10.3Z"/><rect class="cls-9" x="235.44" y="126.93" width="8.29" height="4"/><rect class="cls-8" x="246.73" y="126.43" width="9.29" height="15.29"/><path d="M255.52,126.93v14.29h-8.29V126.93h8.29m1-1H246.23v16.29h10.29Z"/><rect class="cls-9" x="247.23" y="126.93" width="8.29" height="4"/><rect class="cls-8" x="199.57" y="144.19" width="9.29" height="15.29"/><path d="M208.36,144.69V159h-8.29V144.69h8.29m1-1H199.07V160h10.29Z"/><rect class="cls-9" x="200.07" y="144.69" width="8.29" height="4"/><rect class="cls-8" x="211.36" y="144.19" width="9.29" height="15.29"/><path d="M220.15,144.69V159h-8.29V144.69h8.29m1-1H210.86V160h10.29V143.69Z"/><rect class="cls-9" x="211.86" y="144.69" width="8.29" height="4"/><rect class="cls-8" x="223.15" y="144.19" width="9.29" height="15.29"/><path d="M231.94,144.69V159h-8.29V144.69h8.29m1-1H222.65V160h10.29Z"/><rect class="cls-9" x="223.65" y="144.69" width="8.29" height="4"/><rect class="cls-8" x="234.94" y="144.19" width="9.29" height="15.29"/><path d="M243.74,144.69V159h-8.3V144.69h8.3m1-1h-10.3V160h10.3Z"/><rect class="cls-9" x="235.44" y="144.69" width="8.29" height="4"/><rect class="cls-8" x="246.73" y="144.19" width="9.29" height="15.29"/><path d="M255.52,144.69V159h-8.29V144.69h8.29m1-1H246.23V160h10.29Z"/><rect class="cls-9" x="247.23" y="144.69" width="8.29" height="4"/><rect class="cls-3" x="199.57" y="169.74" width="16.93" height="26.03"/><path d="M216,170.24v25H200.07v-25H216m1-1H199.07v27H217Z"/><rect class="cls-8" x="199.57" y="185.35" width="16.93" height="10.43"/><path d="M216,185.85v9.43H200.07v-9.43H216m1-1H199.07v11.43H217V184.85Z"/><rect class="cls-3" x="238.76" y="169.74" width="16.93" height="26.03"/><path d="M255.2,170.24v25H239.26v-25h15.93m1-1H238.26v27h17.93Z"/><rect class="cls-8" x="238.76" y="185.35" width="16.93" height="10.43"/><path d="M255.2,185.85v9.43H239.26v-9.43h15.93m1-1H238.26v11.43h17.93V184.85Z"/><line class="cls-10" x1="200.07" y1="173.63" x2="255.2" y2="173.63"/><rect class="cls-11" x="216.01" y="173.63" width="23.26" height="21.65"/><g class="cls-12"><rect x="195.86" y="167.32" width="63.88" height="11.9"/></g><rect class="cls-13" x="195.36" y="162.68" width="64.88" height="8.07"/><path d="M259.74,163.18v7.07H195.86v-7.07h63.88m1-1H194.86v9.07h65.88Z"/><line class="cls-10" x1="227.64" y1="173.63" x2="227.64" y2="195.27"/><line class="cls-10" x1="222.55" y1="185.85" x2="225.55" y2="185.85"/><line class="cls-10" x1="229.31" y1="185.85" x2="232.31" y2="185.85"/><path class="cls-14" d="M157.4,267.37a1.85,1.85,0,0,1-1.15.26H51.12a1.8,1.8,0,0,1-1.77-2.72l2-4.88H9a1.8,1.8,0,0,1-2-1.55,1.78,1.78,0,0,1,.25-1.17l6.89-16.5a3.7,3.7,0,0,1,3.22-2H105.8a3.7,3.7,0,0,1,3.22,2l2.34,5.6h36.52a3.68,3.68,0,0,1,3.22,2L158,264.9A1.79,1.79,0,0,1,157.4,267.37Z"/><rect class="cls-15" x="19.59" y="192.57" width="50" height="63.07"/><polygon class="cls-6" points="75 188.56 69.59 192.47 19.59 192.47 24.36 188.72 75 188.56"/><rect class="cls-16" x="54.27" y="210.84" width="98.25" height="48.73"/><polygon class="cls-6" points="145.24 204.97 152.52 210.69 54.27 210.69 61.24 205.22 145.24 204.97"/><rect class="cls-11" x="123.69" y="246.18" width="14.37" height="13.38"/><line class="cls-10" x1="130.88" y1="246.18" x2="130.88" y2="259.56"/><line class="cls-10" x1="127.74" y1="253.73" x2="129.59" y2="253.73"/><line class="cls-10" x1="131.91" y1="253.73" x2="133.77" y2="253.73"/><line class="cls-10" x1="54.27" y1="218.68" x2="152.52" y2="218.68"/><line class="cls-10" x1="54.27" y1="226.67" x2="152.52" y2="226.67"/><line class="cls-10" x1="54.27" y1="234.66" x2="152.52" y2="234.66"/><line class="cls-10" x1="54.27" y1="242.65" x2="152.52" y2="242.65"/><line class="cls-10" x1="54.27" y1="250.64" x2="123.69" y2="250.64"/><line class="cls-10" x1="138.07" y1="250.64" x2="152.52" y2="250.64"/><rect class="cls-16" x="91.83" y="195.5" width="28.17" height="12.96"/><polygon class="cls-17" points="120 195.5 117.44 192.94 94.29 193.04 91.83 195.5 120 195.5"/><circle class="cls-10" cx="51.75" cy="51.06" r="27.33"/><ellipse class="cls-10" cx="51.75" cy="51.06" rx="18.24" ry="27.33"/><ellipse class="cls-10" cx="51.75" cy="51.06" rx="7.92" ry="27.33"/><ellipse class="cls-10" cx="51.75" cy="51.06" rx="27.33" ry="14.06"/><line class="cls-10" x1="24.42" y1="51.06" x2="79.08" y2="51.06"/><line class="cls-10" x1="51.75" y1="23.72" x2="51.75" y2="78.39"/><path class="cls-18" d="M88,41.06a21.45,21.45,0,0,1,21.43,21.17c0,.43-.1.86-.11,1.32l-.2,5.26,5,1.74a14.24,14.24,0,0,1-4.68,27.7H38a14.3,14.3,0,0,1-.22-28.55l1,.11,5.42.36L46,65.05a13.86,13.86,0,0,1,15.9-9.36l5,.9,2.44-4.46a21.43,21.43,0,0,1,18.57-11"/><circle class="cls-10" cx="290.82" cy="123.1" r="19.6"/><path class="cls-19" d="M288.52,115.8l-3.23,3.58a5.1,5.1,0,0,0,.37,7.18l2.52,2.27a5.1,5.1,0,0,0,7.18-.37l3.23-3.58Z"/><line class="cls-20" x1="294.19" y1="113.3" x2="290.41" y2="117.5"/><line class="cls-20" x1="286.75" y1="127.89" x2="282.09" y2="133.06"/><line class="cls-20" x1="300.06" y1="118.6" x2="296.42" y2="122.64"/><path class="cls-3" d="M267.69,176a2.44,2.44,0,0,1-2.38-2.22l-1.56-20.21a2.34,2.34,0,0,1,.6-1.77,2.15,2.15,0,0,1,1.59-.69h51.29a2.15,2.15,0,0,1,1.59.69,2.34,2.34,0,0,1,.6,1.78l-1.56,20.2a2.44,2.44,0,0,1-2.38,2.22Z"/><path d="M317.22,151.64a1.73,1.73,0,0,1,1.69,1.93l-1.56,20.2a1.93,1.93,0,0,1-1.89,1.76H267.69a1.93,1.93,0,0,1-1.89-1.76l-1.56-20.2a1.73,1.73,0,0,1,1.69-1.93h51.29m0-1H265.94a2.64,2.64,0,0,0-2,.85,2.85,2.85,0,0,0-.73,2.15l1.56,20.2a3,3,0,0,0,2.88,2.68h47.79a3,3,0,0,0,2.88-2.68l1.56-20.2a2.85,2.85,0,0,0-.73-2.15,2.64,2.64,0,0,0-2-.85Z"/><path class="cls-3" d="M265.6,154.85a2,2,0,0,1-1.71-.82,2,2,0,0,1-.09-1.94l5.2-12.42a3.28,3.28,0,0,1,2.89-1.77h39.39a3.28,3.28,0,0,1,2.89,1.77l5.2,12.42a2,2,0,0,1-.09,1.94,2,2,0,0,1-1.71.82Z"/><path d="M311.27,138.39a2.78,2.78,0,0,1,2.43,1.47l5.2,12.42a1.38,1.38,0,0,1-1.34,2.07h-52a1.38,1.38,0,0,1-1.34-2.07l5.2-12.42a2.78,2.78,0,0,1,2.43-1.47h39.39m0-1H271.89a3.76,3.76,0,0,0-3.36,2.08l-5.2,12.42a2.53,2.53,0,0,0,.14,2.41,2.48,2.48,0,0,0,2.13,1h52a2.48,2.48,0,0,0,2.13-1,2.53,2.53,0,0,0,.14-2.41l-5.2-12.42a3.76,3.76,0,0,0-3.36-2.08Z"/><path class="cls-13" d="M316,170.59H267.2a2,2,0,0,1-1.74-1.14l.34,4.37a1.94,1.94,0,0,0,1.89,1.77h47.79a2,2,0,0,0,1.89-1.79l.34-4.34A2,2,0,0,1,316,170.59Z"/><path d="M317.22,151.64a1.73,1.73,0,0,1,1.69,1.93l-1.56,20.2a1.93,1.93,0,0,1-1.89,1.76H267.69a1.93,1.93,0,0,1-1.89-1.76l-1.56-20.2a1.73,1.73,0,0,1,1.69-1.93h51.29m0-1H265.94a2.64,2.64,0,0,0-2,.85,2.85,2.85,0,0,0-.73,2.15l1.56,20.2a3,3,0,0,0,2.88,2.68h47.79a3,3,0,0,0,2.88-2.68l1.56-20.2a2.85,2.85,0,0,0-.73-2.15,2.64,2.64,0,0,0-2-.85Z"/><path class="cls-3" d="M265.6,154.85a2,2,0,0,1-1.71-.82,2,2,0,0,1-.09-1.94l5.2-12.42a3.28,3.28,0,0,1,2.89-1.77h39.39a3.28,3.28,0,0,1,2.89,1.77l5.2,12.42a2,2,0,0,1-.09,1.94,2,2,0,0,1-1.71.82Z"/><path d="M311.27,138.39a2.78,2.78,0,0,1,2.43,1.47l5.2,12.42a1.38,1.38,0,0,1-1.34,2.07h-52a1.38,1.38,0,0,1-1.34-2.07l5.2-12.42a2.78,2.78,0,0,1,2.43-1.47h39.39m0-1H271.89a3.76,3.76,0,0,0-3.36,2.08l-5.2,12.42a2.53,2.53,0,0,0,.14,2.41,2.48,2.48,0,0,0,2.13,1h52a2.48,2.48,0,0,0,2.13-1,2.53,2.53,0,0,0,.14-2.41l-5.2-12.42a3.76,3.76,0,0,0-3.36-2.08Z"/><path class="cls-8" d="M314.88,142.68l-1.18-2.82a2.78,2.78,0,0,0-2.43-1.47H271.89a2.78,2.78,0,0,0-2.43,1.47l-1.18,2.82Z"/><path class="cls-3" d="M271.18,151.34a2.17,2.17,0,0,1-2-3l2.27-5.94a2.53,2.53,0,0,1,2.35-1.62h35.58a2.52,2.52,0,0,1,2.35,1.62l2.27,6a2.18,2.18,0,0,1-2,3Z"/><path d="M309.37,141.27a2,2,0,0,1,1.88,1.29l2.27,6a1.68,1.68,0,0,1-1.55,2.32h-40.8a1.68,1.68,0,0,1-1.55-2.32l2.27-6a2,2,0,0,1,1.88-1.29h35.58m0-1H273.79A3,3,0,0,0,271,142.2l-2.27,6a2.68,2.68,0,0,0,2.48,3.68H312a2.68,2.68,0,0,0,2.47-3.71l-2.26-5.93a3,3,0,0,0-2.81-1.94Z"/><path class="cls-8" d="M316.66,160.59H266.5c-.74,0-1.41-.1-1.74-.73l.71,9.42a2.17,2.17,0,0,0,1.74,1.31H316a2,2,0,0,0,1.74-1.14l.71-9.57C318.07,160.51,317.4,160.59,316.66,160.59Z"/><path class="cls-21" d="M271.62,158.92h40.12a1.92,1.92,0,0,1,1.92,1.92v14.91a0,0,0,0,1,0,0h-44a0,0,0,0,1,0,0V160.84A1.92,1.92,0,0,1,271.62,158.92Z"/><path class="cls-15" d="M271.62,158.92h40.12a1.92,1.92,0,0,1,1.92,1.92v14.91a0,0,0,0,1,0,0h-44a0,0,0,0,1,0,0V160.84A1.92,1.92,0,0,1,271.62,158.92Z"/><path class="cls-13" d="M272.42,161l.05-.05a1.49,1.49,0,0,1,1.1-.43h40a1.93,1.93,0,0,0-1.89-1.61H271.62a1.93,1.93,0,0,0-1.92,1.92v14.91H272v-13.6a1.49,1.49,0,0,1,.44-1.1Z"/><path class="cls-10" d="M271.62,158.92h40.12a1.92,1.92,0,0,1,1.92,1.92v14.91a0,0,0,0,1,0,0h-44a0,0,0,0,1,0,0V160.84A1.92,1.92,0,0,1,271.62,158.92Z"/><path class="cls-7" d="M278.29,147.91h-.4l-1.36-1.6a1.11,1.11,0,0,1-.14-.2q-.05.24-.1.38l-.44,1.42h-.53l.81-2.54h.38l1.28,1.47a1.84,1.84,0,0,1,.21.28c0-.24.08-.39.1-.44l.35-1.3h.5Z"/><path class="cls-7" d="M283.52,147.91h-2.17l.43-2.14h2.06l-.06.35h-1.6l-.09.47H283L283,147h-1l-.1.54h1.67Z"/><path class="cls-7" d="M288.07,146.14h-.94l-.16,1.77h-.49l.18-1.77h-.93l0-.37h2.32Z"/><path class="cls-7" d="M293,147.39c0,.34-.23.52-.73.52h-2l.07-2.54h2.05c.36,0,.54.16.55.47v.3c0,.25-.13.39-.41.42a.47.47,0,0,1,.46.49Zm-.58-1.22v-.24q0-.18-.26-.18h-1.28v.59h1.3Q292.38,146.35,292.38,146.17Zm0,1V147q0-.14-.07-.19a.41.41,0,0,0-.21,0h-1.31v.66h1.33a.4.4,0,0,0,.21,0S292.41,147.29,292.41,147.2Z"/><path class="cls-7" d="M298.05,147.91h-2.17l-.18-2.14h2.06l0,.35h-1.6l0,.47h.94l0,.36h-1l.05.54H298Z"/><path class="cls-7" d="M302.7,147.91h-2.17l-.38-2.14h2.06l.08.35h-1.6l.09.47h.94l.07.36h-1l.1.54h1.67Z"/><path class="cls-7" d="M307.14,147.91h-2.26l-.06-.24,1-1.53h-1.28l-.1-.37h2l.06.2-1,1.52H307Z"/><rect class="cls-22" x="275.57" y="162.75" width="11.76" height="9.68"/><polygon class="cls-3" points="276.3 163.35 276.3 171.82 279.6 171.82 279.6 170.59 277.54 170.59 277.54 164.59 285.36 164.59 285.36 170.59 283.03 170.59 283.03 171.82 286.6 171.82 286.6 163.35 276.3 163.35"/></svg>